HIERARCHY
ROOT Hips
{
	OFFSET 0.000000 0.000000 0.000000 
	CHANNELS 6 Xposition Yposition Zposition Zrotation Yrotation Xrotation
	JOINT LeftUpLeg
	{
		OFFSET 1.363060 -1.794630 0.839290 
		CHANNELS 3 Zrotation Yrotation Xrotation
		JOINT LeftLeg
		{
			OFFSET 2.448110 -6.726130 0.000000 
			CHANNELS 3 Zrotation Yrotation Xrotation
			JOINT LeftFoot
			{
				OFFSET 2.562200 -7.039590 0.000000 
				CHANNELS 3 Zrotation Yrotation Xrotation
				JOINT LeftToeBase
				{
					OFFSET 0.157640 -0.433110 2.322550 
					CHANNELS 3 Zrotation Yrotation Xrotation
					End Site
					{
						OFFSET 0.000000 0.000000 0.000000 
					}
				}
			}
		}
	}
	JOINT RightUpLeg
	{
		OFFSET -1.305520 -1.794630 0.839290 
		CHANNELS 3 Zrotation Yrotation Xrotation
		JOINT RightLeg
		{
			OFFSET -2.542530 -6.985550 0.000000 
			CHANNELS 3 Zrotation Yrotation Xrotation
			JOINT RightFoot
			{
				OFFSET -2.568260 -7.056230 0.000000 
				CHANNELS 3 Zrotation Yrotation Xrotation
				JOINT RightToeBase
				{
					OFFSET -0.164730 -0.452590 2.363150 
					CHANNELS 3 Zrotation Yrotation Xrotation
					End Site
					{
						OFFSET 0.000000 0.000000 0.000000 
					}
				}
			}
		}
	}
	JOINT Spine
	{
		OFFSET 0.028270 2.035590 -0.193380 
		CHANNELS 3 Zrotation Yrotation Xrotation
		JOINT Spine1
		{
			OFFSET 0.056720 2.048850 -0.042750 
			CHANNELS 3 Zrotation Yrotation Xrotation
			JOINT Neck1
			{
				OFFSET -0.054170 1.746240 0.172020 
				CHANNELS 3 Zrotation Yrotation Xrotation
				JOINT Head
				{
					OFFSET 0.104070 1.761360 -0.123970 
					CHANNELS 3 Zrotation Yrotation Xrotation
					End Site
					{
						OFFSET 0.000000 0.000000 0.000000 
					}
				}
			}
			JOINT LeftArm
			{
				OFFSET 3.362410 1.200890 -0.311210 
				CHANNELS 3 Zrotation Yrotation Xrotation
				JOINT LeftForeArm
				{
					OFFSET 4.983000 -0.000000 -0.000000 
					CHANNELS 3 Zrotation Yrotation Xrotation
					JOINT LeftHand
					{
						OFFSET 3.483560 -0.000000 -0.000000 
						CHANNELS 3 Zrotation Yrotation Xrotation
						JOINT LeftHandIndex1
						{
							OFFSET 0.715260 -0.000000 -0.000000 
							CHANNELS 3 Zrotation Yrotation Xrotation
							End Site
							{
								OFFSET 0.000000 0.000000 0.000000 
							}
						}
					}
				}
			}
			JOINT RightArm
			{
				OFFSET -3.136600 1.374050 -0.404650 
				CHANNELS 3 Zrotation Yrotation Xrotation
				JOINT RightForeArm
				{
					OFFSET -5.241900 -0.000000 -0.000000 
					CHANNELS 3 Zrotation Yrotation Xrotation
					JOINT RightHand
					{
						OFFSET -3.444170 -0.000000 -0.000000 
						CHANNELS 3 Zrotation Yrotation Xrotation
						JOINT RightHandIndex1
						{
							OFFSET -0.622530 -0.000000 -0.000000 
							CHANNELS 3 Zrotation Yrotation Xrotation
							End Site
							{
								OFFSET 0.000000 0.000000 0.000000 
							}
						}
					}
				}
			}
		}
	}
}
MOTION
Frames: 13
Frame Time: 0.041667
-3.159295 16.183105 -0.866401 -8.166679 86.864728 7.713864 -11.517604 0.090801 -50.410453 10.249426 19.683500 61.775468 7.161408 -20.705744 -3.916371 0.024000 0.999800 2.748100 13.177248 14.004779 -40.304131 -10.838062 -20.361016 64.269230 -4.266753 9.049305 -17.423134 -1.372900 7.415200 -20.951600 1.647633 2.309797 7.667027 -0.690937 2.036597 -7.715291 -3.525782 2.786722 -10.969130 -3.468900 0.961600 -3.178500 -67.941026 9.006816 31.467131 25.069507 -35.652619 -10.664801 0.791004 -1.648085 9.520472 -7.125000 0.000000 0.000000 72.258352 -8.891394 39.325230 -25.511270 33.208379 -8.043630 0.966082 -0.082270 2.884596 7.125000 0.000000 0.000000 
-3.047687 16.097757 -0.874505 -9.945063 87.019437 6.054571 -11.409719 -0.133200 -50.856078 10.857869 19.951851 63.349156 7.189455 -20.922226 -4.665238 0.018600 0.880400 2.419900 13.184032 14.049680 -40.631466 -11.359132 -20.569840 65.692944 -4.331944 9.109534 -18.003442 -1.546900 7.850500 -22.260900 1.632777 2.256838 7.636644 -0.680719 2.003463 -7.724956 -3.405763 2.798982 -11.282578 -3.411900 0.959900 -3.225200 -67.349304 8.068661 31.534824 25.808939 -36.229735 -11.138265 0.791899 -1.651434 9.585640 -7.125000 0.000000 0.000000 72.055694 -8.543590 39.179646 -25.426853 33.139055 -8.034737 0.993247 -0.119575 2.817855 7.125000 0.000000 0.000000 
-2.933514 16.020719 -0.882814 -11.750287 87.174880 4.361708 -11.243986 -0.424509 -51.178668 11.410904 20.184031 64.765288 7.225400 -21.148239 -5.370250 0.011600 0.696400 1.913700 13.192576 14.082293 -40.895960 -11.842818 -20.747564 67.015434 -4.386025 9.152132 -18.504198 -1.702300 8.216300 -23.373000 1.618044 2.219715 7.600788 -0.673885 1.976625 -7.739182 -3.282002 2.780392 -11.572774 -3.352800 0.943100 -3.260300 -66.738325 7.081454 31.584051 26.618256 -36.845413 -11.665042 0.794139 -1.655635 9.647784 -7.125000 0.000000 0.000000 71.820625 -8.237231 39.094673 -25.386682 33.113394 -8.051497 1.020132 -0.154337 2.657156 7.125000 0.000000 0.000000 
-2.816059 15.952810 -0.891020 -13.388162 87.327851 2.823817 -11.036928 -0.772178 -51.361193 11.900871 20.380460 66.003177 7.270901 -21.378776 -6.039680 0.005300 0.472000 1.297000 13.199340 14.104655 -41.083012 -12.285148 -20.894164 68.227285 -4.427925 9.161402 -18.942135 -1.842200 8.529300 -24.333800 1.607702 2.197551 7.560189 -0.651502 1.956746 -7.759689 -3.158598 2.738064 -11.836404 -3.292500 0.915400 -3.282800 -66.128967 6.068626 31.605181 27.515795 -37.510737 -12.258881 0.796629 -1.660050 9.680660 -7.125000 0.000000 0.000000 71.539103 -7.977158 39.084538 -25.390480 33.130500 -8.092039 1.045388 -0.184713 2.434767 7.125000 0.000000 0.000000 
-2.695731 15.893415 -0.898919 -14.590170 87.469520 1.727793 -10.813493 -1.162467 -51.427617 12.324551 20.544761 67.055793 7.324762 -21.591106 -6.690474 0.001300 0.232900 0.639800 13.191867 14.128964 -41.212660 -12.684723 -21.014441 69.324464 -4.456846 9.138469 -19.315122 -1.964000 8.790800 -25.143000 1.588340 2.187623 7.509176 -0.626052 1.942453 -7.798992 -2.755289 2.707132 -11.774812 -3.480200 0.866900 -3.585400 -65.510035 5.068199 31.610913 28.523447 -38.239313 -12.937142 0.798403 -1.664007 9.645220 -7.125000 0.000000 0.000000 71.222063 -7.769082 39.150465 -25.439381 33.191295 -8.155343 1.068545 -0.209135 2.165008 7.125000 0.000000 0.000000 
-2.572428 15.843253 -0.906202 -15.059671 87.599773 1.377135 -10.601759 -1.578888 -51.379906 12.676333 20.678190 67.907554 7.389303 -21.772501 -7.343962 0.000000 -0.004600 -0.012600 13.160957 14.163494 -41.274872 -13.036670 -21.109170 70.292103 -4.475445 9.086897 -19.633490 -2.066600 9.003400 -25.806000 1.567611 2.188223 7.432550 -0.575619 1.934209 -7.842906 -2.646139 2.626902 -12.002043 -3.415500 0.822100 -3.591900 -64.891961 4.108857 31.611857 29.655675 -39.035383 -13.712484 0.798399 -1.665510 9.519011 -7.125000 0.000000 0.000000 70.859916 -7.619374 39.288081 -25.543814 33.303139 -8.245161 1.087769 -0.227392 1.884426 7.125000 0.000000 0.000000 
-2.445638 15.803041 -0.912973 -14.543778 87.712601 2.026685 -10.428878 -1.998474 -51.219140 12.953165 20.780715 68.548183 7.465831 -21.889677 -8.028654 0.001200 -0.226400 -0.622000 13.102585 14.210571 -41.262526 -13.335772 -21.178713 71.113407 -4.486846 9.013982 -19.905764 -2.152000 9.175800 -26.346900 1.532387 2.192175 7.327733 -0.517519 1.928995 -7.910896 -2.538384 2.538131 -12.221173 -3.353200 0.773300 -3.595000 -64.259695 3.236259 31.624301 30.939012 -39.911862 -14.610311 0.797020 -1.665305 9.263641 -7.125000 0.000000 0.000000 70.462500 -7.539597 39.501275 -25.713024 33.473943 -8.364731 1.102421 -0.238464 1.602782 7.125000 0.000000 0.000000 
-2.314950 15.773190 -0.919025 -12.924044 87.807282 3.800828 -10.317058 -2.396352 -50.951085 13.150311 20.851423 68.965955 7.554026 -21.918469 -8.753233 0.004200 -0.416200 -1.143700 13.018498 14.271377 -41.166381 -13.573688 -21.222362 71.763245 -4.495174 8.930656 -20.139622 -2.221200 9.312300 -26.777200 1.482690 2.197468 7.192549 -0.451545 1.925791 -7.999600 -2.433874 2.442885 -12.435672 -3.294200 0.721400 -3.597300 -63.610316 2.476873 31.658069 32.394806 -40.872866 -15.654515 0.795388 -1.664031 8.866118 -7.125000 0.000000 0.000000 70.052200 -7.543335 39.746139 -25.958707 33.713062 -8.520463 1.111083 -0.244431 1.358871 7.125000 0.000000 0.000000 
-2.179542 15.754931 -0.924462 -10.522442 87.888646 6.378463 -10.270309 -2.752185 -50.575314 13.265639 20.888631 69.155268 7.651350 -21.830475 -9.521124 0.007900 -0.574500 -1.578700 12.929026 14.337926 -40.974470 -13.739613 -21.238422 72.213436 -4.501253 8.829205 -20.347502 -2.277400 9.421400 -27.122600 1.419580 2.198682 7.023252 -0.389160 1.921163 -8.112438 -2.332434 2.346659 -12.649564 -3.238600 0.669100 -3.601400 -62.938424 1.858494 31.717307 34.045521 -41.919690 -16.872494 0.794765 -1.662442 8.330540 -7.125000 0.000000 0.000000 69.630903 -7.645342 40.023244 -26.294617 34.031945 -8.720714 1.113408 -0.246108 1.137040 7.125000 0.000000 0.000000 
-2.038904 15.749084 -0.929180 -7.787520 87.963116 9.315850 -10.286152 -3.047813 -50.100053 13.298160 20.890944 69.115325 7.754423 -21.616207 -10.323596 0.012100 -0.710700 -1.953100 12.853870 14.400685 -40.678227 -13.821454 -21.224745 72.431730 -4.506286 8.712708 -20.530977 -2.320400 9.503700 -27.384100 1.349453 2.193053 6.818963 -0.332399 1.912822 -8.245859 -2.239501 2.251271 -12.856796 -3.188000 0.617700 -3.605200 -62.249636 1.401493 31.794350 35.916356 -43.051780 -18.299314 0.797504 -1.664828 7.669834 -7.125000 0.000000 0.000000 69.196063 -7.855774 40.325446 -26.731589 34.438222 -8.973466 1.109294 -0.244099 0.911504 7.125000 0.000000 0.000000 
-1.892212 15.756162 -0.933386 -5.228118 88.040226 12.107606 -10.353028 -3.276251 -49.532636 13.247942 20.857780 68.850391 7.857300 -21.281148 -11.135150 0.016300 -0.825200 -2.268000 12.813256 14.439384 -40.271558 -13.807564 -21.178168 72.388731 -4.508067 8.567185 -20.691859 -2.358200 9.575500 -27.612600 1.278021 2.180329 6.582317 -0.287332 1.899908 -8.391035 -2.158164 2.159753 -13.048126 -3.143300 0.568800 -3.604600 -61.555101 1.120138 31.879725 38.037140 -44.264745 -19.973167 0.804371 -1.673127 6.937800 -7.125000 0.000000 0.000000 68.758065 -8.181982 40.631672 -27.276355 34.935751 -9.286622 1.099624 -0.239623 0.655767 7.125000 0.000000 0.000000 
-1.738546 15.777601 -0.937387 -3.908089 88.134102 13.682831 -10.433916 -3.437615 -48.866956 13.115261 20.787589 68.365613 7.953134 -20.858511 -11.896723 0.020000 -0.912000 -2.506800 12.839919 14.438932 -39.737204 -13.685969 -21.093772 72.055383 -4.505113 8.395007 -20.819076 -2.390400 9.635900 -27.805500 1.216071 2.164336 6.317772 -0.257178 1.883729 -8.540619 -2.094495 2.072280 -13.218422 -3.106800 0.523000 -3.599800 -60.869898 1.029624 31.961999 40.435927 -45.547914 -21.933303 0.815528 -1.689033 6.190680 -7.125000 0.000000 0.000000 68.314044 -8.631210 40.935981 -27.934758 35.526377 -9.668621 1.085687 -0.233315 0.339189 7.125000 0.000000 0.000000 
-1.577186 15.814325 -0.941387 -4.561437 88.251660 13.306381 -10.501032 -3.540884 -48.108975 12.901934 20.680685 67.671102 8.035868 -20.388391 -12.553941 0.023200 -0.982600 -2.701000 12.945636 14.385361 -39.071967 -13.448945 -20.967275 71.411879 -4.494580 8.200843 -20.889809 -2.414000 9.679900 -27.946100 1.170071 2.145917 6.029002 -0.241278 1.864769 -8.686457 -2.047485 1.989137 -13.367580 -3.077100 0.480400 -3.592800 -60.214337 1.147280 32.022566 43.139533 -46.885776 -24.220262 0.830220 -1.713202 5.503920 -7.125000 0.000000 0.000000 67.861411 -9.199718 41.247272 -28.701243 36.200708 -10.122021 1.069785 -0.225355 -0.066887 7.125000 0.000000 0.000000 
